<svg xmlns="http://www.w3.org/2000/svg" xmlns:xlink="http://www.w3.org/1999/xlink" width="126.994" height="139.647" viewBox="0 0 126.994 139.647"><defs><linearGradient id="a" x1="0.5" x2="0.5" y2="1" gradientUnits="objectBoundingBox"><stop offset="0" stop-color="#fcd443"/><stop offset="1" stop-color="#fa5f1f"/></linearGradient><filter id="b" x="0" y="0" width="126.994" height="139.647" filterUnits="userSpaceOnUse"><feOffset dx="3" dy="3" input="SourceAlpha"/><feGaussianBlur stdDeviation="3" result="c"/><feFlood flood-opacity="0.239"/><feComposite operator="in" in2="c"/><feComposite in="SourceGraphic"/></filter></defs><g transform="translate(-1210.526 -3543.15)"><g transform="translate(1216.526 3549.15)"><g transform="matrix(1, 0, 0, 1, -6, -6)" filter="url(#b)"><path d="M0,37.212V84.435A13.6,13.6,0,0,0,6.8,96.214l40.9,23.611a13.6,13.6,0,0,0,13.6,0l40.9-23.611a13.6,13.6,0,0,0,6.8-11.779V37.212a13.6,13.6,0,0,0-6.8-11.779L61.3,1.822a13.6,13.6,0,0,0-13.6,0L6.8,25.433A13.6,13.6,0,0,0,0,37.212Z" transform="translate(114.99 127.65) rotate(180)" fill="url(#a)"/></g><path d="M1850.63,568.108a8.323,8.323,0,0,1-4.156-1.114l-40.9-23.611a8.336,8.336,0,0,1-4.157-7.2V488.961a8.337,8.337,0,0,1,4.157-7.2l40.9-23.611a8.314,8.314,0,0,1,8.314,0l40.9,23.611a8.337,8.337,0,0,1,4.157,7.2v47.222a8.338,8.338,0,0,1-4.157,7.2l-40.9,23.611A8.324,8.324,0,0,1,1850.63,568.108Z" transform="translate(-1796.134 -451.749)" fill="url(#a)"/></g><path d="M23.968,0C31.08,0,34.832-4.48,34.832-10.08c0-4.7-3.192-8.568-7.168-9.184,3.528-.728,6.44-3.864,6.44-8.568,0-4.984-3.64-9.52-10.752-9.52H3.7V0ZM11.648-30.576h9.968a4.049,4.049,0,0,1,4.368,4.088,4.031,4.031,0,0,1-4.368,4.144H11.648Zm0,15.008H21.9c3.136,0,4.816,2.016,4.816,4.368,0,2.688-1.792,4.424-4.816,4.424H11.648Z" transform="translate(1251.836 3627.37)" fill="#fff"/></g></svg>