<svg xmlns="http://www.w3.org/2000/svg" xmlns:xlink="http://www.w3.org/1999/xlink" width="197.144" height="218.758" viewBox="0 0 197.144 218.758"><defs><linearGradient id="a" x1="0.5" x2="0.5" y2="0.633" gradientUnits="objectBoundingBox"><stop offset="0" stop-color="#cdea33"/><stop offset="1" stop-color="#8fc72a"/></linearGradient><filter id="b" x="11.014" y="0" width="181.116" height="218.758" filterUnits="userSpaceOnUse"><feOffset dx="3" dy="3" input="SourceAlpha"/><feGaussianBlur stdDeviation="3" result="c"/><feFlood flood-opacity="0.239"/><feComposite operator="in" in2="c"/><feComposite in="SourceGraphic"/></filter></defs><g transform="translate(0.001 6)"><g transform="matrix(1, 0, 0, 1, 0, -6)" filter="url(#b)"><path d="M-161.854-154.11c.8.018.413.012,1.178.016l.755.141,3.235.809,8.528,2.132c11.763,2.943,11.763,2.943,25.879,6.472l25.879,6.47,8.529,2.132,3.235.811a6.269,6.269,0,0,1,4.752,6.085v94.12C-79.884-22.4-84.5-10.562-92.93.5c-6.919,9.082-16.221,17.418-27.317,25.046a199.581,199.581,0,0,1-26.722,15.341c-3.184,1.526-6.145,2.851-8.81,3.97-.942.394-1.781.736-2.508,1.023-.449.178-.77.3-.951.37a6.271,6.271,0,0,1-4.407,0c-.181-.067-.5-.192-.952-.37-.727-.288-1.566-.629-2.508-1.023-2.665-1.119-5.626-2.444-8.81-3.97a199.579,199.579,0,0,1-26.722-15.341c-11.1-7.628-20.4-15.964-27.317-25.046C-238.38-10.562-243-22.4-243-34.922v-94.12a6.269,6.269,0,0,1,4.752-6.085l3.235-.811,8.529-2.132,25.879-6.47c14.116-3.529,14.116-3.529,25.879-6.472l8.528-2.132,3.235-.809a6.125,6.125,0,0,1,1.109-.157Zm7.172,14.4" transform="translate(260.01 160.11)" fill="url(#a)"/></g><g transform="translate(49.792 32.459)"><path d="M913.893,90.984c-.381-1.208-1.608-3.319-5.538-3.861l-26.032-3.6L870.708,61.14c-1.271-2.448-3.23-3.853-5.38-3.853s-4.109,1.405-5.379,3.851L848.33,83.525l-26.03,3.6c-3.93.542-5.156,2.653-5.537,3.861-.636,2.027.174,4.278,2.228,6.182l18.757,17.387-4.426,24.517a6.348,6.348,0,0,0,1.106,5.435c1.636,1.952,4.554,2.3,7.587.787l23.313-11.656,23.313,11.656a8.253,8.253,0,0,0,3.667.963,5,5,0,0,0,3.92-1.753,6.33,6.33,0,0,0,1.1-5.432l-4.423-24.517,18.756-17.387C913.72,95.262,914.532,93.009,913.893,90.984Z" transform="translate(-816.551 -57.287)" fill="none" stroke="#fff" stroke-miterlimit="10" stroke-width="1"/><path d="M855.556,122l-19.845-18.4,27.445-3.794,12.518-24.119L888.19,99.81l27.448,3.794L895.794,122l4.744,26.292-24.864-12.43L850.81,148.292Z" transform="translate(-826.898 -67.226)" fill="#fff" stroke="#fff" stroke-miterlimit="10" stroke-width="1"/></g><g transform="translate(-0.001 167.327)"><g transform="translate(168.522 0)"><path d="M1443.808,257.519l5.208-18.482a96.955,96.955,0,0,1,23.414,9.935l-9.685,5.343,1.548,12.25a75.6,75.6,0,0,0-20.484-9.043Z" transform="translate(-1443.808 -239.037)" fill="#6940f2"/><path d="M1453.493,252.946l-9.685,4.192V245.277Z" transform="translate(-1443.808 -238.656)" fill="#020215"/></g><g transform="translate(0 0)"><path d="M1313.6,258.519l-5.207-18.482a96.956,96.956,0,0,0-23.415,9.936l9.686,5.343-1.548,12.248a75.6,75.6,0,0,1,20.484-9.042Z" transform="translate(-1284.978 -240.037)" fill="#6940f2"/><path d="M1302.826,253.946l9.685,4.192V246.277Z" transform="translate(-1283.889 -239.656)" fill="#020215"/></g></g><g transform="translate(5.985 127.667)"><path d="M1290.356,221.129l13.005,34.859c19.637-10.766,47.183-18.157,79.578-18.157,23.244,0,65.857,10.633,79.58,18.157l13.006-34.859c-25.229-12.66-57.269-20.162-92.586-20.162S1315.585,208.468,1290.356,221.129Z" transform="translate(-1290.356 -200.967)" fill="#090745"/></g><g transform="translate(45.2 137.811)"><path d="M1598.751,436.141a19.427,19.427,0,0,1-5.515,2.052c-3.115.595-5.52.241-7.382-.978a8.414,8.414,0,0,1-3.592-5.747c-1.06-5.678,2.45-9.71,8.047-10.779a11.977,11.977,0,0,1,4.9-.07l-.22,3.245a9.648,9.648,0,0,0-4.117.024c-3.217.617-5.3,2.9-4.593,6.6.673,3.521,3.273,5.176,6.44,4.572a5.268,5.268,0,0,0,1.851-.618l-.684-3.571-2.634.5-.575-3.014,6.358-1.215Z" transform="translate(-1582.074 -416.74)" fill="#fff"/><path d="M1607.1,428.571l-6.35.771.5,4.1,7.093-.862.39,3.2-11.01,1.336-2.1-17.258,10.652-1.294.389,3.2-6.734.818.435,3.585,6.351-.771Z" transform="translate(-1578.146 -417.273)" fill="#fff"/><path d="M1607.856,435.8l-.981-17.364,4.585-.259,3.966,6.159a50.592,50.592,0,0,1,3.17,5.79l.078,0a64.984,64.984,0,0,1-.744-7.22l-.286-5.076,3.606-.2.982,17.365-4.122.233-4.089-6.49a64.407,64.407,0,0,1-3.36-5.96l-.076.031c.234,2.287.422,4.731.583,7.565l.3,5.23Z" transform="translate(-1574.886 -417.545)" fill="#fff"/><path d="M1631.636,427.719l-6.4-.073-.048,4.129,7.148.081-.038,3.226-11.1-.128.2-17.391,10.734.123-.038,3.226-6.784-.077-.043,3.612,6.4.073Z" transform="translate(-1570.732 -417.563)" fill="#fff"/><path d="M1633.393,418.1a34.366,34.366,0,0,1,5.246.2c2.564.277,4.318.857,5.443,1.963a4.42,4.42,0,0,1,1.2,3.788,4.615,4.615,0,0,1-3.512,3.928l-.008.077c1.152.617,1.694,1.843,1.957,3.481.329,2.006.623,4.321.885,5.024l-4-.433a21.621,21.621,0,0,1-.769-4.156c-.229-2.2-.909-2.875-2.5-3.072l-1.179-.128-.735,6.8-3.872-.418Zm3.067,7.856,1.54.166c1.949.21,3.208-.64,3.372-2.153.172-1.59-.819-2.5-2.61-2.722a9.8,9.8,0,0,0-1.784-.063Z" transform="translate(-1567.734 -417.417)" fill="#fff"/><path d="M1648.325,432.656l-1.973,4.191-4.018-.687,8.169-16.243,5.086.871,2.383,18.047-4.169-.715-.572-4.625Zm4.844-2.155-.446-3.819c-.131-1.069-.219-2.393-.3-3.454l-.051-.008c-.428.973-.9,2.226-1.354,3.172l-1.638,3.461Z" transform="translate(-1564.609 -416.881)" fill="#fff"/><path d="M1659.726,421.775l3.858.832-2.967,13.766,6.758,1.455-.7,3.227-10.615-2.287Z" transform="translate(-1560.629 -416.342)" fill="#fff"/></g></g></svg>