<svg xmlns="http://www.w3.org/2000/svg" width="10.408" height="15" viewBox="0 0 10.408 15">
  <g id="pagination-last" transform="translate(-729.797 -1415)">
    <path id="Path_2066" data-name="Path 2066" d="M2544.872,2135.18l-4.033,6.812a.7.7,0,0,0,0,.7l4.033,6.812a.688.688,0,1,0,1.185-.7l-3.826-6.461,3.826-6.461a.688.688,0,0,0-1.185-.7Z" transform="translate(3280.949 3564.842) rotate(180)" fill="#090745"/>
    <path id="Path_2067" data-name="Path 2067" d="M2544.872,2135.18l-4.033,6.812a.7.7,0,0,0,0,.7l4.033,6.812a.688.688,0,1,0,1.185-.7l-3.826-6.461,3.826-6.461a.688.688,0,0,0-1.185-.7Z" transform="translate(3275.949 3564.842) rotate(180)" fill="#090745"/>
  </g>
</svg>
