<svg xmlns="http://www.w3.org/2000/svg" width="118" height="118" viewBox="0 0 118 118">
  <g id="upload-icon" transform="translate(-375 -419)">
    <circle id="Ellipse_729" data-name="Ellipse 729" cx="59" cy="59" r="59" transform="translate(493 419) rotate(90)" fill="#f6f6f6"/>
    <g id="Group_2339" data-name="Group 2339" transform="translate(266 212.583)">
      <path id="Path_1894" data-name="Path 1894" d="M188.529,251.392H178.465l-1.923-4.565a2.3,2.3,0,0,0-2.123-1.41h-12.84a2.3,2.3,0,0,0-2.123,1.41l-1.923,4.565h-5.17v-1.577a1.442,1.442,0,0,0-1.44-1.44h-5.273a1.442,1.442,0,0,0-1.44,1.44v1.615A4.79,4.79,0,0,0,140,256.178v23.9a4.791,4.791,0,0,0,4.786,4.786h43.743A4.476,4.476,0,0,0,193,280.4V255.862A4.476,4.476,0,0,0,188.529,251.392Zm-28.013-4.118a1.15,1.15,0,0,1,1.062-.7h12.84a1.15,1.15,0,0,1,1.062.7l1.735,4.118H158.782Zm-15.155,2.541a.288.288,0,0,1,.288-.288h5.273a.288.288,0,0,1,.288.288v1.577h-5.849Zm-4.208,30.266v-23.9a3.638,3.638,0,0,1,3.634-3.634h6.423v31.171h-6.423A3.638,3.638,0,0,1,141.152,280.082Zm50.7.315a3.322,3.322,0,0,1-3.318,3.318H152.361V252.544h36.168a3.322,3.322,0,0,1,3.318,3.318Z" fill="#090745"/>
      <path id="Path_1895" data-name="Path 1895" d="M378.805,380.638a11.474,11.474,0,1,0,11.474,11.474A11.487,11.487,0,0,0,378.805,380.638Zm0,21.8a10.322,10.322,0,1,1,10.322-10.322A10.334,10.334,0,0,1,378.805,402.434Z" transform="translate(-206.91 -123.074)" fill="#707070"/>
      <path id="Path_1896" data-name="Path 1896" d="M419.817,425.7a7.426,7.426,0,1,0,7.426,7.426A7.435,7.435,0,0,0,419.817,425.7Zm0,13.7a6.274,6.274,0,1,1,6.274-6.274A6.281,6.281,0,0,1,419.817,439.4Z" transform="translate(-247.922 -164.088)" fill="#707070"/>
      <path id="Path_1897" data-name="Path 1897" d="M460.831,470.759a3.382,3.382,0,0,0-3.379,3.378.576.576,0,0,0,1.152,0,2.229,2.229,0,0,1,2.226-2.226.576.576,0,0,0,0-1.152Z" transform="translate(-288.935 -205.099)" fill="#707070"/>
      <path id="Path_1898" data-name="Path 1898" d="M645.006,484.623a2.133,2.133,0,1,0,2.133,2.133A2.135,2.135,0,0,0,645.006,484.623Zm0,3.114a.981.981,0,1,1,.981-.981A.982.982,0,0,1,645.006,487.737Z" transform="translate(-457.7 -217.718)" fill="#707070"/>
      <path id="Path_1899" data-name="Path 1899" d="M311.223,363.762v-1.9a1.442,1.442,0,0,0-1.44-1.44h-3.923a1.442,1.442,0,0,0-1.44,1.44v1.9a1.442,1.442,0,0,0,1.44,1.44h3.923A1.442,1.442,0,0,0,311.223,363.762Zm-1.152,0a.288.288,0,0,1-.288.288h-3.923a.288.288,0,0,1-.288-.288v-1.9a.288.288,0,0,1,.288-.288h3.923a.288.288,0,0,1,.288.288Z" transform="translate(-149.649 -104.669)" fill="#707070"/>
    </g>
    <circle id="Ellipse_734" data-name="Ellipse 734" cx="17" cy="17" r="17" transform="translate(493 424) rotate(90)" fill="#6940f2"/>
    <g id="Group_2345" data-name="Group 2345" transform="translate(127 345.22)">
      <g id="Group_2342" data-name="Group 2342" transform="translate(339 84.781)">
        <path id="Path_1900" data-name="Path 1900" d="M356.575,86.131c-1.419-1.419-3.287-1.773-4.253-.806L340.769,96.878a.542.542,0,0,0-.139.238l-1.612,5.911a.538.538,0,0,0,.519.679.559.559,0,0,0,.142-.019l5.911-1.612a.537.537,0,0,0,.238-.139l11.553-11.553C358.348,89.416,357.994,87.549,356.575,86.131Zm-11.406,14.945L340.3,102.4l1.326-4.865,11.452-11.452c.456-.457,1.69-.237,2.733.806s1.262,2.277.806,2.733Z" transform="translate(-339 -84.781)" fill="#fff"/>
        <g id="Group_2340" data-name="Group 2340" transform="translate(1.733 12.061)">
          <path id="Path_1901" data-name="Path 1901" d="M346.56,112.32l-4.3-4.3c-.21-.21.55-.97.76-.76l4.3,4.3C347.53,111.771,346.665,112.425,346.56,112.32Z" transform="translate(-342.225 -107.225)" fill="#fff"/>
        </g>
        <g id="Group_2341" data-name="Group 2341" transform="translate(12.48 1.314)">
          <path id="Path_1902" data-name="Path 1902" d="M366.56,92.32l-4.3-4.3c-.21-.21.55-.97.76-.76l4.3,4.3C367.53,91.771,366.665,92.425,366.56,92.32Z" transform="translate(-362.225 -87.225)" fill="#fff"/>
        </g>
      </g>
      <path id="Path_1903" data-name="Path 1903" d="M358.971,121.075H345.537a.537.537,0,1,1,0-1.075h13.434a.537.537,0,0,1,0,1.075Z" transform="translate(-2.776 -16.294)" fill="#fff"/>
    </g>
  </g>
</svg>
