<svg xmlns="http://www.w3.org/2000/svg" xmlns:xlink="http://www.w3.org/1999/xlink" width="126.994" height="139.647" viewBox="0 0 126.994 139.647"><defs><linearGradient id="a" x1="0.5" x2="0.5" y2="1" gradientUnits="objectBoundingBox"><stop offset="0" stop-color="#1efdfd"/><stop offset="1" stop-color="#3072f7"/></linearGradient><filter id="b" x="0" y="0" width="126.994" height="139.647" filterUnits="userSpaceOnUse"><feOffset dx="3" dy="3" input="SourceAlpha"/><feGaussianBlur stdDeviation="3" result="c"/><feFlood flood-opacity="0.239"/><feComposite operator="in" in2="c"/><feComposite in="SourceGraphic"/></filter></defs><g transform="translate(-1635.432 -3543.15)"><g transform="translate(1641.432 3549.15)"><g transform="matrix(1, 0, 0, 1, -6, -6)" filter="url(#b)"><path d="M0,37.212V84.435A13.6,13.6,0,0,0,6.8,96.214l40.9,23.611a13.6,13.6,0,0,0,13.6,0l40.9-23.611a13.6,13.6,0,0,0,6.8-11.779V37.212a13.6,13.6,0,0,0-6.8-11.779L61.3,1.822a13.6,13.6,0,0,0-13.6,0L6.8,25.433A13.6,13.6,0,0,0,0,37.212Z" transform="translate(114.99 127.65) rotate(180)" fill="url(#a)"/></g><path d="M1850.63,568.108a8.323,8.323,0,0,1-4.156-1.114l-40.9-23.611a8.336,8.336,0,0,1-4.157-7.2V488.961a8.337,8.337,0,0,1,4.157-7.2l40.9-23.611a8.314,8.314,0,0,1,8.314,0l40.9,23.611a8.337,8.337,0,0,1,4.157,7.2v47.222a8.338,8.338,0,0,1-4.157,7.2l-40.9,23.611A8.324,8.324,0,0,1,1850.63,568.108Z" transform="translate(-1796.134 -451.749)" fill="url(#a)"/></g><path d="M18.424,0c11.7,0,19.824-7.392,19.824-18.648s-8.12-18.7-19.824-18.7H3.7V0ZM11.648-30.352h6.776c7.672,0,11.7,5.1,11.7,11.7C30.128-12.32,25.816-7,18.424-7H11.648Z" transform="translate(1676.741 3627.37)" fill="#fff"/></g></svg>