<svg xmlns="http://www.w3.org/2000/svg" xmlns:xlink="http://www.w3.org/1999/xlink" width="197.144" height="218.758" viewBox="0 0 197.144 218.758"><defs><linearGradient id="a" x1="0.5" x2="0.5" y2="0.587" gradientUnits="objectBoundingBox"><stop offset="0" stop-color="#d6cafc"/><stop offset="1" stop-color="#6940f2"/></linearGradient><filter id="b" x="11.014" y="0" width="181.116" height="218.758" filterUnits="userSpaceOnUse"><feOffset dx="3" dy="3" input="SourceAlpha"/><feGaussianBlur stdDeviation="3" result="c"/><feFlood flood-opacity="0.235"/><feComposite operator="in" in2="c"/><feComposite in="SourceGraphic"/></filter></defs><g transform="translate(0.001 6)"><g transform="matrix(1, 0, 0, 1, 0, -6)" filter="url(#b)"><path d="M-161.854-154.11c.8.018.413.012,1.178.016l.755.141,3.235.809,8.528,2.132c11.763,2.943,11.763,2.943,25.879,6.472l25.879,6.47,8.529,2.132,3.235.811a6.269,6.269,0,0,1,4.752,6.085v94.12C-79.884-22.4-84.5-10.562-92.93.5c-6.919,9.082-16.221,17.418-27.317,25.046a199.581,199.581,0,0,1-26.722,15.341c-3.184,1.526-6.145,2.851-8.81,3.97-.942.394-1.781.736-2.508,1.023-.449.178-.77.3-.951.37a6.271,6.271,0,0,1-4.407,0c-.181-.067-.5-.192-.952-.37-.727-.288-1.566-.629-2.508-1.023-2.665-1.119-5.626-2.444-8.81-3.97a199.579,199.579,0,0,1-26.722-15.341c-11.1-7.628-20.4-15.964-27.317-25.046C-238.38-10.562-243-22.4-243-34.922v-94.12a6.269,6.269,0,0,1,4.752-6.085l3.235-.811,8.529-2.132,25.879-6.47c14.116-3.529,14.116-3.529,25.879-6.472l8.528-2.132,3.235-.809a6.125,6.125,0,0,1,1.109-.157Zm7.172,14.4" transform="translate(260.01 160.11)" fill="url(#a)"/></g><g transform="translate(49.843 32.023)"><path d="M913.793,90.95c-.381-1.207-1.606-3.316-5.532-3.857l-26-3.594-11.6-22.362c-1.269-2.446-3.227-3.849-5.374-3.849s-4.1,1.4-5.374,3.847L848.3,83.5l-26,3.594c-3.926.541-5.151,2.65-5.532,3.857-.635,2.025.174,4.273,2.226,6.175l18.737,17.369L833.3,138.985a6.342,6.342,0,0,0,1.105,5.43c1.634,1.95,4.549,2.3,7.579.786l23.289-11.643L888.567,145.2a8.243,8.243,0,0,0,3.663.962,5,5,0,0,0,3.916-1.751,6.323,6.323,0,0,0,1.1-5.427l-4.419-24.491,18.737-17.369C913.62,95.223,914.431,92.972,913.793,90.95Z" transform="translate(-816.551 -57.287)" fill="none" stroke="#fff" stroke-miterlimit="10" stroke-width="1"/><path d="M855.572,122.041l-19.861-18.412,27.468-3.8,12.528-24.14,12.526,24.14,27.472,3.8L895.844,122.04l4.748,26.315-24.885-12.441-24.886,12.442Z" transform="translate(-826.981 -67.306)" fill="none" stroke="#fff" stroke-miterlimit="10" stroke-width="1"/><path d="M881.15,136.82l-12.022-10.959,16.674-2.267,8.1-15.339,8.095,15.339,16.678,2.267-12.021,10.958,2.99,16.3L893.9,145.376l-15.742,7.739Z" transform="translate(-845.173 -84.629)" fill="none" stroke="#fff" stroke-miterlimit="10" stroke-width="1"/><path d="M911.678,155.463l-6.33,3.165,1.182-6.549-3.987-3.7,5.609-.776,3.524-6.788,3.523,6.788,5.613.776-3.985,3.694,1.182,6.55Z" transform="translate(-862.951 -102.353)" fill="#fff" stroke="#fff" stroke-miterlimit="10" stroke-width="1"/></g><g transform="translate(-0.001 167.327)"><g transform="translate(168.522 0)"><path d="M1443.808,257.519l5.208-18.482a96.955,96.955,0,0,1,23.414,9.935l-9.685,5.343,1.548,12.25a75.6,75.6,0,0,0-20.484-9.043Z" transform="translate(-1443.808 -239.037)" fill="#6940f2"/><path d="M1453.493,252.946l-9.685,4.192V245.277Z" transform="translate(-1443.808 -238.656)" fill="#020215"/></g><g transform="translate(0 0)"><path d="M1313.6,258.519l-5.207-18.482a96.956,96.956,0,0,0-23.415,9.936l9.686,5.343-1.548,12.248a75.6,75.6,0,0,1,20.484-9.042Z" transform="translate(-1284.978 -240.037)" fill="#6940f2"/><path d="M1302.826,253.946l9.685,4.192V246.277Z" transform="translate(-1283.889 -239.656)" fill="#020215"/></g></g><g transform="translate(5.985 127.667)"><path d="M1290.356,221.129l13.005,34.859c19.637-10.766,47.183-18.157,79.578-18.157,23.244,0,65.857,10.633,79.58,18.157l13.006-34.859c-25.229-12.66-57.269-20.162-92.586-20.162S1315.585,208.468,1290.356,221.129Z" transform="translate(-1290.356 -200.967)" fill="#090745"/></g><g transform="translate(54.705 137.811)"><path d="M1601.315,492.924l-6.2.948.611,4,6.93-1.059.478,3.127-10.758,1.645-2.576-16.862,10.406-1.59.478,3.126-6.58,1.006.535,3.5,6.2-.948Z" transform="translate(-1589.797 -481.031)" fill="#fff"/><path d="M1611.678,499.2l-1.812-2.936c-.737-1.127-1.218-1.972-1.785-2.912l-.051,0c-.264,1.015-.614,1.936-1.036,3.165l-1.136,3.2-4.383.392,4.143-9.029-5.488-7.965,4.407-.4,1.765,2.967c.6.987,1.049,1.785,1.538,2.706l.051,0c.3-1.121.564-1.905.9-2.926l1.159-3.228,4.382-.392-4.043,8.716,5.818,8.24Z" transform="translate(-1587.058 -481.374)" fill="#fff"/><path d="M1613.834,482.016a31.579,31.579,0,0,1,5.2-.5c2.377-.067,4.085.34,5.249,1.218a4.983,4.983,0,0,1,1.932,3.894,5.45,5.45,0,0,1-1.454,4.09,7.9,7.9,0,0,1-5.486,1.952,9.789,9.789,0,0,1-1.318-.039l.173,6.094-3.819.109Zm4.037,7.63a5.839,5.839,0,0,0,1.293.065c2.048-.057,3.284-1.13,3.235-2.874-.046-1.569-1.159-2.472-3.081-2.419a6.5,6.5,0,0,0-1.589.2Z" transform="translate(-1583.425 -481.462)" fill="#fff"/><path d="M1636.091,491.882l-6.262-.364-.236,4.039,6.994.407-.182,3.156-10.857-.631.988-17.018,10.5.61-.183,3.156-6.641-.385-.206,3.533,6.262.364Z" transform="translate(-1580.32 -481.472)" fill="#fff"/><path d="M1638.185,482.458a33.979,33.979,0,0,1,5.136.331c2.509.335,4.213.948,5.289,2.061a4.335,4.335,0,0,1,1.082,3.745,4.527,4.527,0,0,1-3.542,3.762l-.01.075c1.114.635,1.614,1.851,1.833,3.463.272,1.976.5,4.252.741,4.949l-3.913-.525a21.388,21.388,0,0,1-.65-4.094c-.17-2.167-.82-2.841-2.369-3.074l-1.156-.154-.89,6.644-3.785-.506Zm2.811,7.779,1.506.2c1.905.255,3.162-.547,3.359-2.027.208-1.554-.74-2.473-2.492-2.733a9.447,9.447,0,0,0-1.746-.106Z" transform="translate(-1577.562 -481.212)" fill="#fff"/><path d="M1653,487.844l-4.5-.827.586-3.185,12.889,2.37-.585,3.185-4.58-.842-2.5,13.586-3.806-.7Z" transform="translate(-1574.237 -480.847)" fill="#fff"/></g></g></svg>