<svg xmlns="http://www.w3.org/2000/svg" xmlns:xlink="http://www.w3.org/1999/xlink" width="197.144" height="218.758" viewBox="0 0 197.144 218.758">
  <defs>
    <linearGradient id="linear-gradient" x1="0.5" x2="0.5" y2="0.641" gradientUnits="objectBoundingBox">
      <stop offset="0" stop-color="#1efdfd"/>
      <stop offset="1" stop-color="#3072f7"/>
    </linearGradient>
    <filter id="Path_3402" x="11.015" y="0" width="181.116" height="218.758" filterUnits="userSpaceOnUse">
      <feOffset dx="3" dy="3" input="SourceAlpha"/>
      <feGaussianBlur stdDeviation="3" result="blur"/>
      <feFlood flood-opacity="0.239"/>
      <feComposite operator="in" in2="blur"/>
      <feComposite in="SourceGraphic"/>
    </filter>
  </defs>
  <g id="Group_3401" data-name="Group 3401" transform="translate(-1597.355 -3278.953)">
    <g transform="matrix(1, 0, 0, 1, 1597.36, 3278.95)" filter="url(#Path_3402)">
      <path id="Path_3402-2" data-name="Path 3402" d="M-161.854-154.11c.8.018.413.012,1.178.016l.755.141,3.235.809,8.528,2.132c11.763,2.943,11.763,2.943,25.879,6.472l25.879,6.47,8.529,2.132,3.235.811a6.269,6.269,0,0,1,4.752,6.085v94.12C-79.884-22.4-84.5-10.562-92.93.5c-6.919,9.082-16.221,17.418-27.317,25.046a199.581,199.581,0,0,1-26.722,15.341c-3.184,1.526-6.145,2.851-8.81,3.97-.942.394-1.781.736-2.508,1.023-.449.178-.77.3-.951.37a6.271,6.271,0,0,1-4.407,0c-.181-.067-.5-.192-.952-.37-.727-.288-1.566-.629-2.508-1.023-2.665-1.119-5.626-2.444-8.81-3.97a199.579,199.579,0,0,1-26.722-15.341c-11.1-7.628-20.4-15.964-27.317-25.046C-238.38-10.562-243-22.4-243-34.922v-94.12a6.269,6.269,0,0,1,4.752-6.085l3.235-.811,8.529-2.132,25.879-6.47c14.116-3.529,14.116-3.529,25.879-6.472l8.528-2.132,3.235-.809a6.125,6.125,0,0,1,1.109-.157Zm7.172,14.4" transform="translate(260.01 160.11)" fill="url(#linear-gradient)"/>
    </g>
    <g id="Group_3358" data-name="Group 3358" transform="translate(1597.355 3452.279)">
      <g id="Group_3350" data-name="Group 3350" transform="translate(168.522 0)">
        <path id="Path_3395" data-name="Path 3395" d="M1443.808,257.519l5.208-18.482a96.955,96.955,0,0,1,23.414,9.935l-9.685,5.343,1.548,12.25a75.6,75.6,0,0,0-20.484-9.043Z" transform="translate(-1443.808 -239.037)" fill="#6940f2"/>
        <path id="Path_3396" data-name="Path 3396" d="M1453.493,252.946l-9.685,4.192V245.277Z" transform="translate(-1443.808 -238.656)" fill="#020215"/>
      </g>
      <g id="Group_3351" data-name="Group 3351" transform="translate(0 0)">
        <path id="Path_3397" data-name="Path 3397" d="M1313.6,258.519l-5.207-18.482a96.956,96.956,0,0,0-23.415,9.936l9.686,5.343-1.548,12.248a75.6,75.6,0,0,1,20.484-9.042Z" transform="translate(-1284.978 -240.037)" fill="#6940f2"/>
        <path id="Path_3398" data-name="Path 3398" d="M1302.826,253.946l9.685,4.192V246.277Z" transform="translate(-1283.889 -239.656)" fill="#020215"/>
      </g>
    </g>
    <g id="Group_3359" data-name="Group 3359" transform="translate(1603.342 3412.62)">
      <path id="Path_3394" data-name="Path 3394" d="M1290.356,221.129l13.005,34.859c19.637-10.766,47.183-18.157,79.578-18.157,23.244,0,65.857,10.633,79.58,18.157l13.006-34.859c-25.229-12.66-57.269-20.162-92.586-20.162S1315.585,208.468,1290.356,221.129Z" transform="translate(-1290.356 -200.967)" fill="#090745"/>
    </g>
    <g id="Group_3364" data-name="Group 3364" transform="translate(1648.014 3316.977)">
      <path id="Path_3429" data-name="Path 3429" d="M913.793,90.95c-.381-1.207-1.606-3.316-5.532-3.857l-26-3.594-11.6-22.362c-1.269-2.446-3.227-3.849-5.374-3.849s-4.1,1.4-5.374,3.847L848.3,83.5l-26,3.594c-3.926.541-5.151,2.65-5.532,3.857-.635,2.025.174,4.273,2.226,6.175l18.737,17.369L833.3,138.985a6.342,6.342,0,0,0,1.105,5.43c1.634,1.95,4.549,2.3,7.579.786l23.289-11.643L888.567,145.2a8.243,8.243,0,0,0,3.663.962,5,5,0,0,0,3.916-1.751,6.323,6.323,0,0,0,1.1-5.427l-4.419-24.491,18.737-17.369C913.62,95.223,914.431,92.972,913.793,90.95Z" transform="translate(-816.551 -57.287)" fill="none" stroke="#fff" stroke-miterlimit="10" stroke-width="1"/>
      <path id="Path_3430" data-name="Path 3430" d="M855.572,122.041l-19.861-18.412,27.468-3.8,12.528-24.14,12.526,24.14,27.472,3.8L895.844,122.04l4.748,26.315-24.885-12.441-24.886,12.442Z" transform="translate(-826.981 -67.306)" fill="none" stroke="#fff" stroke-miterlimit="10" stroke-width="1"/>
      <path id="Path_3431" data-name="Path 3431" d="M881.15,136.82l-12.022-10.959,16.674-2.267,8.1-15.339,8.095,15.339,16.678,2.267-12.021,10.958,2.99,16.3L893.9,145.376l-15.742,7.739Z" transform="translate(-845.173 -84.629)" fill="none" stroke="#fff" stroke-miterlimit="10" stroke-width="1"/>
      <path id="Path_3432" data-name="Path 3432" d="M911.678,155.463l-6.33,3.165,1.182-6.549-3.987-3.7,5.609-.776,3.524-6.788,3.523,6.788,5.613.776-3.985,3.694,1.182,6.55Z" transform="translate(-862.951 -102.353)" fill="#fff" stroke="#fff" stroke-miterlimit="10" stroke-width="1"/>
    </g>
    <g id="Group_3400" data-name="Group 3400" transform="translate(299.828 3139.234)">
      <path id="Path_3450" data-name="Path 3450" d="M1320.278,294.577l9.629-3.163.961,2.922-6.053,1.988,1.182,3.6,5.656-1.859.952,2.9-5.657,1.858,2.082,6.334-3.577,1.175Z" transform="translate(0 1.756)" fill="#fff"/>
      <path id="Path_3451" data-name="Path 3451" d="M1347.582,295.249c1.279,5.284-1.153,9.264-5.864,10.4-4.783,1.157-8.455-1.779-9.565-6.371-1.169-4.832,1.043-9.188,5.8-10.339C1342.908,287.745,1346.506,290.8,1347.582,295.249Zm-11.6,3.03c.764,3.157,2.784,5.022,5.224,4.433,2.463-.6,3.308-3.28,2.551-6.414-.7-2.894-2.688-5.046-5.2-4.439C1336.1,292.456,1335.229,295.146,1335.986,298.279Z" transform="translate(2.665 1.127)" fill="#fff"/>
      <path id="Path_3452" data-name="Path 3452" d="M1349.547,286.916l1.479,9.433c.442,2.82,1.736,4.087,3.633,3.789,1.944-.305,2.8-1.834,2.347-4.727l-1.479-9.433,3.7-.58,1.441,9.189c.791,5.058-1.383,7.864-5.663,8.535-4.131.648-6.922-1.256-7.741-6.483l-1.433-9.141Z" transform="translate(5.885 0.371)" fill="#fff"/>
      <path id="Path_3453" data-name="Path 3453" d="M1361.435,301.741l-1.355-16.525,4.364-.358,3.929,5.775a48.029,48.029,0,0,1,3.162,5.443l.073-.006a61.529,61.529,0,0,1-.884-6.864l-.395-4.83,3.432-.281,1.355,16.525-3.925.321-4.053-6.085a61.625,61.625,0,0,1-3.345-5.6l-.073.03c.278,2.174.517,4.5.738,7.2l.408,4.977Z" transform="translate(9.168 0.07)" fill="#fff"/>
      <path id="Path_3454" data-name="Path 3454" d="M1374.56,284.195a33.361,33.361,0,0,1,5.066-.4c3.15-.037,5.2.506,6.812,1.693a7.346,7.346,0,0,1,2.878,6.221,8.418,8.418,0,0,1-2.68,6.75c-1.731,1.473-4.383,2.193-7.631,2.229a32.329,32.329,0,0,1-4.26-.2Zm3.92,13.493a6.942,6.942,0,0,0,1.305.059c3.4-.015,5.591-1.911,5.545-5.874-.015-3.445-2.053-5.244-5.278-5.207a7.788,7.788,0,0,0-1.7.167Z" transform="translate(12.503 0)" fill="#fff"/>
      <path id="Path_3455" data-name="Path 3455" d="M1392.448,296.585l-1.6,4.117-3.868-.388,6.7-15.994,4.9.492,3.46,17.014-4.015-.4-.848-4.363Zm4.466-2.37-.677-3.6c-.194-1.01-.366-2.263-.512-3.267l-.049,0c-.343.955-.714,2.178-1.079,3.105l-1.331,3.4Z" transform="translate(15.364 0.122)" fill="#fff"/>
      <path id="Path_3456" data-name="Path 3456" d="M1404.22,288.933l-4.4-.685.486-3.113L1412.9,287.1l-.485,3.112-4.474-.7-2.071,13.274-3.719-.581Z" transform="translate(18.322 0.31)" fill="#fff"/>
      <path id="Path_3457" data-name="Path 3457" d="M1416.653,287.828l-3.1,16.3-3.7-.7,3.1-16.3Z" transform="translate(20.633 0.768)" fill="#fff"/>
      <path id="Path_3458" data-name="Path 3458" d="M1431.866,299.3c-1.2,5.3-5.141,7.791-9.869,6.721-4.8-1.085-6.787-5.342-5.744-9.95,1.1-4.846,5.01-7.77,9.785-6.689C1431,290.5,1432.875,294.833,1431.866,299.3Zm-11.734-2.426c-.716,3.167.267,5.735,2.714,6.288,2.47.559,4.418-1.473,5.128-4.616.658-2.9-.17-5.712-2.688-6.282C1422.815,291.7,1420.844,293.726,1420.133,296.869Z" transform="translate(22.045 1.235)" fill="#fff"/>
      <path id="Path_3459" data-name="Path 3459" d="M1429.155,307.563l4.454-15.981,4.221,1.176,1.688,6.782a48.262,48.262,0,0,1,1.081,6.2l.071.02a61.382,61.382,0,0,1,1.548-6.748l1.3-4.67,3.319.925-4.454,15.981-3.793-1.058-1.7-7.116a61.763,61.763,0,0,1-1.2-6.416l-.079,0c-.492,2.137-1.073,4.4-1.8,7.012l-1.341,4.813Z" transform="translate(25.079 1.795)" fill="#fff"/>
    </g>
  </g>
</svg>
