<svg id="icon-show-password" xmlns="http://www.w3.org/2000/svg" width="27.641" height="17.4" viewBox="0 0 27.641 17.4">
  <path id="Path_3364" data-name="Path 3364" d="M102.251,191.637q-.563-.325-1.129-.706a26.417,26.417,0,0,1-4.612-4,26.425,26.425,0,0,1,4.612-4,14.8,14.8,0,0,1,6.27-2.559,6.689,6.689,0,0,0-4.211,10.336l1.1-1.1a5.161,5.161,0,0,1,7.089-7.089l1.1-1.1a6.638,6.638,0,0,0-2.47-1.04,12.1,12.1,0,0,1,2.79.72l1.169-1.169a13.325,13.325,0,0,0-5.266-1.161c-6.31,0-11.659,5.287-13.509,7.354a1.222,1.222,0,0,0,0,1.63,27.316,27.316,0,0,0,5.949,5Z" transform="translate(-94.879 -178.23)" fill="#d6cafc"/>
  <path id="Path_3365" data-name="Path 3365" d="M240.612,218.643a27.315,27.315,0,0,0-5.949-5l-1.113,1.113q.563.325,1.13.706a26.426,26.426,0,0,1,4.612,4,26.42,26.42,0,0,1-4.612,4,14.787,14.787,0,0,1-6.27,2.558,6.689,6.689,0,0,0,4.211-10.336l-1.1,1.1a5.161,5.161,0,0,1-7.089,7.089l-1.1,1.1a6.639,6.639,0,0,0,2.47,1.04,12.1,12.1,0,0,1-2.79-.72l-1.169,1.169a13.325,13.325,0,0,0,5.266,1.161c6.31,0,11.659-5.287,13.509-7.354A1.222,1.222,0,0,0,240.612,218.643Z" transform="translate(-213.283 -210.758)" fill="#d6cafc"/>
  <path id="Path_3366" data-name="Path 3366" d="M304.736,251.125a3.321,3.321,0,0,0-1.064-.258,2.175,2.175,0,0,1,.2.908,1.863,1.863,0,0,1-.013.23Z" transform="translate(-289.604 -245.477)" fill="#d6cafc"/>
  <path id="Path_3367" data-name="Path 3367" d="M250.71,289.125a3.291,3.291,0,0,0,.27,1.31l1.534-1.534a1.87,1.87,0,0,1-.23.013,2.184,2.184,0,0,1-1.48-.575A3.336,3.336,0,0,0,250.71,289.125Z" transform="translate(-240.211 -280.425)" fill="#d6cafc"/>
  <path id="Path_3368" data-name="Path 3368" d="M281.869,285.174a3.323,3.323,0,0,0,3.052-4.632l-4.362,4.362A3.291,3.291,0,0,0,281.869,285.174Z" transform="translate(-268.048 -273.153)" fill="#d6cafc"/>
  <path id="Path_3369" data-name="Path 3369" d="M175.516,184.885l1.092-1.092,1.331-1.331,4.529-4.529,1.33-1.33,1.092-1.092.822-.822,1.118-1.118,1.194-1.194a.88.88,0,1,0-1.244-1.244l-1.588,1.588-1.156,1.156-.389.389-1.092,1.092-1.331,1.331-1.4,1.4-1.079,1.079-2.052,2.052-1.331,1.331-1.092,1.092-.822.822-1.118,1.118-1.194,1.194a.88.88,0,1,0,1.244,1.244l1.588-1.588,1.156-1.156Z" transform="translate(-165.76 -170.876)" fill="#d6cafc"/>
</svg>
