<svg xmlns="http://www.w3.org/2000/svg" xmlns:xlink="http://www.w3.org/1999/xlink" width="197.144" height="218.758" viewBox="0 0 197.144 218.758">
  <defs>
    <linearGradient id="linear-gradient" x1="0.5" x2="0.5" y2="0.642" gradientUnits="objectBoundingBox">
      <stop offset="0" stop-color="#fcd443"/>
      <stop offset="1" stop-color="#fa5f1f"/>
    </linearGradient>
    <filter id="Path_3400" x="11.014" y="0" width="181.116" height="218.758" filterUnits="userSpaceOnUse">
      <feOffset dx="3" dy="3" input="SourceAlpha"/>
      <feGaussianBlur stdDeviation="3" result="blur"/>
      <feFlood flood-opacity="0.239"/>
      <feComposite operator="in" in2="blur"/>
      <feComposite in="SourceGraphic"/>
    </filter>
  </defs>
  <g id="Group_3403" data-name="Group 3403" transform="translate(-1172.451 -3278.953)">
    <g transform="matrix(1, 0, 0, 1, 1172.45, 3278.95)" filter="url(#Path_3400)">
      <path id="Path_3400-2" data-name="Path 3400" d="M-161.854-154.11c.8.018.413.012,1.178.016l.755.141,3.235.809,8.528,2.132c11.763,2.943,11.763,2.943,25.879,6.472l25.879,6.47,8.529,2.132,3.235.811a6.269,6.269,0,0,1,4.752,6.085v94.12C-79.884-22.4-84.5-10.562-92.93.5c-6.919,9.082-16.221,17.418-27.317,25.046a199.581,199.581,0,0,1-26.722,15.341c-3.184,1.526-6.145,2.851-8.81,3.97-.942.394-1.781.736-2.508,1.023-.449.178-.77.3-.951.37a6.271,6.271,0,0,1-4.407,0c-.181-.067-.5-.192-.952-.37-.727-.288-1.566-.629-2.508-1.023-2.665-1.119-5.626-2.444-8.81-3.97a199.579,199.579,0,0,1-26.722-15.341c-11.1-7.628-20.4-15.964-27.317-25.046C-238.38-10.562-243-22.4-243-34.922v-94.12a6.269,6.269,0,0,1,4.752-6.085l3.235-.811,8.529-2.132,25.879-6.47c14.116-3.529,14.116-3.529,25.879-6.472l8.528-2.132,3.235-.809a6.125,6.125,0,0,1,1.109-.157Zm7.172,14.4" transform="translate(260.01 160.11)" fill="url(#linear-gradient)"/>
    </g>
    <g id="Group_3355" data-name="Group 3355" transform="translate(1172.451 3452.279)">
      <g id="Group_3350" data-name="Group 3350" transform="translate(168.522 0)">
        <path id="Path_3395" data-name="Path 3395" d="M1443.808,257.519l5.208-18.482a96.955,96.955,0,0,1,23.414,9.935l-9.685,5.343,1.548,12.25a75.6,75.6,0,0,0-20.484-9.043Z" transform="translate(-1443.808 -239.037)" fill="#6940f2"/>
        <path id="Path_3396" data-name="Path 3396" d="M1453.493,252.946l-9.685,4.192V245.277Z" transform="translate(-1443.808 -238.656)" fill="#020215"/>
      </g>
      <g id="Group_3351" data-name="Group 3351" transform="translate(0 0)">
        <path id="Path_3397" data-name="Path 3397" d="M1313.6,258.519l-5.207-18.482a96.956,96.956,0,0,0-23.415,9.936l9.686,5.343-1.548,12.248a75.6,75.6,0,0,1,20.484-9.042Z" transform="translate(-1284.978 -240.037)" fill="#6940f2"/>
        <path id="Path_3398" data-name="Path 3398" d="M1302.826,253.946l9.685,4.192V246.277Z" transform="translate(-1283.889 -239.656)" fill="#020215"/>
      </g>
    </g>
    <g id="Group_3354" data-name="Group 3354" transform="translate(1178.438 3412.62)">
      <path id="Path_3394" data-name="Path 3394" d="M1290.356,221.129l13.005,34.859c19.637-10.766,47.183-18.157,79.578-18.157,23.244,0,65.857,10.633,79.58,18.157l13.006-34.859c-25.229-12.66-57.269-20.162-92.586-20.162S1315.585,208.468,1290.356,221.129Z" transform="translate(-1290.356 -200.967)" fill="#090745"/>
    </g>
    <g id="Group_3360" data-name="Group 3360" transform="translate(1209.928 3422.764)">
      <path id="Path_3403" data-name="Path 3403" d="M1578.275,468.614l-.119,4.39-3.751.932.915-17.215,4.748-1.18,8.937,14.768-3.894.967-2.254-3.8Zm3.388-3.716-1.841-3.146c-.521-.879-1.1-2-1.574-2.885l-.048.012c0,1.008.062,2.277.03,3.267l-.106,3.631Z" transform="translate(-1574.405 -449.223)" fill="#fff"/>
      <path id="Path_3404" data-name="Path 3404" d="M1585.674,454.466a33.279,33.279,0,0,1,4.915-1.159c3.09-.511,5.185-.289,6.948.635a7.29,7.29,0,0,1,3.765,5.674,8.364,8.364,0,0,1-1.612,7.035c-1.477,1.706-3.972,2.814-7.158,3.342a32.389,32.389,0,0,1-4.215.45Zm5.888,12.663a6.854,6.854,0,0,0,1.292-.141c3.334-.526,5.2-2.72,4.559-6.6-.535-3.383-2.808-4.841-5.97-4.318a7.828,7.828,0,0,0-1.642.419Z" transform="translate(-1571.891 -449.781)" fill="#fff"/>
      <path id="Path_3405" data-name="Path 3405" d="M1605.634,468.093l-6.77-15.932,4.067-.374,2.636,6.758c.739,1.9,1.424,3.726,2,5.735l.073-.006c.232-2.011.565-4.007.952-5.933l1.451-7.208,3.945-.362-4.019,16.923Z" transform="translate(-1568.948 -450.287)" fill="#fff"/>
      <path id="Path_3406" data-name="Path 3406" d="M1616.547,462.916l-1.041,4.267-3.863.12,4.521-16.636,4.89-.153,5.625,16.318-4.011.126-1.4-4.189Zm4.094-2.917-1.136-3.464c-.324-.969-.656-2.183-.931-3.153h-.049c-.214.986-.42,2.241-.659,3.2l-.869,3.526Z" transform="translate(-1566.096 -450.344)" fill="#fff"/>
      <path id="Path_3407" data-name="Path 3407" d="M1625.381,466.816l1.194-16.441,4.342.317,2.978,6.273a47.764,47.764,0,0,1,2.272,5.828l.074.006a60.95,60.95,0,0,1,.18-6.878l.35-4.806,3.415.249-1.195,16.44-3.9-.283-3.052-6.6a61.474,61.474,0,0,1-2.431-6.013l-.076.02c-.059,2.177-.179,4.5-.374,7.182l-.36,4.952Z" transform="translate(-1563.031 -450.375)" fill="#fff"/>
      <path id="Path_3408" data-name="Path 3408" d="M1650.862,469.128a10.647,10.647,0,0,1-4.289.075c-5.637-.843-8.014-4.785-7.319-9.429.833-5.564,5.263-8.066,10.2-7.326a9.708,9.708,0,0,1,3.908,1.326l-1.189,2.816a8.03,8.03,0,0,0-3.005-1.069c-2.927-.438-5.465.987-6.008,4.615-.489,3.266,1.139,5.612,4.427,6.1a9.307,9.307,0,0,0,3.152-.071Z" transform="translate(-1559.962 -449.941)" fill="#fff"/>
      <path id="Path_3409" data-name="Path 3409" d="M1661.455,464.789l-5.952-1.166-.752,3.841,6.648,1.3-.588,3-10.321-2.022,3.17-16.177,9.984,1.957-.587,3-6.312-1.238-.659,3.36,5.953,1.168Z" transform="translate(-1557.429 -449.663)" fill="#fff"/>
      <path id="Path_3410" data-name="Path 3410" d="M1664.627,455.915a33.431,33.431,0,0,1,4.978.843c3.043.731,4.885,1.753,6.151,3.289a7.294,7.294,0,0,1,1.26,6.692,8.357,8.357,0,0,1-4.222,5.85c-2.024,1-4.752,1.046-7.892.292a32.108,32.108,0,0,1-4.056-1.226Zm.5,13.951a6.9,6.9,0,0,0,1.243.374c3.276.812,5.85-.482,6.77-4.309.822-3.323-.7-5.552-3.82-6.3a7.794,7.794,0,0,0-1.674-.252Z" transform="translate(-1555.118 -449.139)" fill="#fff"/>
    </g>
    <g id="Group_3366" data-name="Group 3366" transform="translate(1222.298 3317.412)">
      <path id="Path_3429" data-name="Path 3429" d="M913.893,90.984c-.381-1.208-1.608-3.319-5.538-3.861l-26.032-3.6L870.708,61.14c-1.271-2.448-3.23-3.853-5.38-3.853s-4.109,1.405-5.379,3.851L848.33,83.525l-26.03,3.6c-3.93.542-5.156,2.653-5.537,3.861-.636,2.027.174,4.278,2.228,6.182l18.757,17.387-4.426,24.517a6.348,6.348,0,0,0,1.106,5.435c1.636,1.952,4.554,2.3,7.587.787l23.313-11.656,23.313,11.656a8.253,8.253,0,0,0,3.667.963,5,5,0,0,0,3.92-1.753,6.33,6.33,0,0,0,1.1-5.432l-4.423-24.517,18.756-17.387C913.72,95.262,914.532,93.009,913.893,90.984Z" transform="translate(-816.551 -57.287)" fill="none" stroke="#fff" stroke-miterlimit="10" stroke-width="1"/>
      <path id="Path_3430" data-name="Path 3430" d="M855.556,122l-19.845-18.4,27.445-3.794,12.518-24.119L888.19,99.81l27.448,3.794L895.794,122l4.744,26.292-24.864-12.43L850.81,148.292Z" transform="translate(-826.898 -67.226)" fill="#fff" stroke="#fff" stroke-miterlimit="10" stroke-width="1"/>
    </g>
  </g>
</svg>
