<svg xmlns="http://www.w3.org/2000/svg" xmlns:xlink="http://www.w3.org/1999/xlink" width="197.144" height="218.758" viewBox="0 0 197.144 218.758"><defs><linearGradient id="a" x1="0.5" x2="0.5" y2="0.641" gradientUnits="objectBoundingBox"><stop offset="0" stop-color="#1efdfd"/><stop offset="1" stop-color="#3072f7"/></linearGradient><filter id="b" x="11.014" y="0" width="181.116" height="218.758" filterUnits="userSpaceOnUse"><feOffset dx="3" dy="3" input="SourceAlpha"/><feGaussianBlur stdDeviation="3" result="c"/><feFlood flood-opacity="0.239"/><feComposite operator="in" in2="c"/><feComposite in="SourceGraphic"/></filter></defs><g transform="translate(0.001 6)"><g transform="matrix(1, 0, 0, 1, 0, -6)" filter="url(#b)"><path d="M-161.854-154.11c.8.018.413.012,1.178.016l.755.141,3.235.809,8.528,2.132c11.763,2.943,11.763,2.943,25.879,6.472l25.879,6.47,8.529,2.132,3.235.811a6.269,6.269,0,0,1,4.752,6.085v94.12C-79.884-22.4-84.5-10.562-92.93.5c-6.919,9.082-16.221,17.418-27.317,25.046a199.581,199.581,0,0,1-26.722,15.341c-3.184,1.526-6.145,2.851-8.81,3.97-.942.394-1.781.736-2.508,1.023-.449.178-.77.3-.951.37a6.271,6.271,0,0,1-4.407,0c-.181-.067-.5-.192-.952-.37-.727-.288-1.566-.629-2.508-1.023-2.665-1.119-5.626-2.444-8.81-3.97a199.579,199.579,0,0,1-26.722-15.341c-11.1-7.628-20.4-15.964-27.317-25.046C-238.38-10.562-243-22.4-243-34.922v-94.12a6.269,6.269,0,0,1,4.752-6.085l3.235-.811,8.529-2.132,25.879-6.47c14.116-3.529,14.116-3.529,25.879-6.472l8.528-2.132,3.235-.809a6.125,6.125,0,0,1,1.109-.157Zm7.172,14.4" transform="translate(260.01 160.11)" fill="url(#a)"/></g><g transform="translate(49.584 32.459)"><path d="M914.315,91.13c-.383-1.214-1.615-3.334-5.562-3.878l-26.144-3.614L870.942,61.157c-1.276-2.459-3.244-3.87-5.4-3.87s-4.127,1.411-5.4,3.868L848.467,83.639l-26.142,3.614c-3.947.544-5.179,2.664-5.561,3.878-.639,2.035.175,4.3,2.238,6.209L837.839,114.8l-4.445,24.623a6.375,6.375,0,0,0,1.111,5.459c1.643,1.961,4.573,2.315,7.62.79l23.414-11.706,23.414,11.706a8.288,8.288,0,0,0,3.683.967,5.022,5.022,0,0,0,3.937-1.761,6.357,6.357,0,0,0,1.109-5.456L893.239,114.8l18.837-17.462C914.14,95.427,914.957,93.164,914.315,91.13Z" transform="translate(-816.551 -57.287)" fill="#fff"/></g><g transform="translate(-0.001 167.327)"><g transform="translate(168.522 0)"><path d="M1443.808,257.519l5.208-18.482a96.955,96.955,0,0,1,23.414,9.935l-9.685,5.343,1.548,12.25a75.6,75.6,0,0,0-20.484-9.043Z" transform="translate(-1443.808 -239.037)" fill="#6940f2"/><path d="M1453.493,252.946l-9.685,4.192V245.277Z" transform="translate(-1443.808 -238.656)" fill="#020215"/></g><g transform="translate(0 0)"><path d="M1313.6,258.519l-5.207-18.482a96.956,96.956,0,0,0-23.415,9.936l9.686,5.343-1.548,12.248a75.6,75.6,0,0,1,20.484-9.042Z" transform="translate(-1284.978 -240.037)" fill="#6940f2"/><path d="M1302.826,253.946l9.685,4.192V246.277Z" transform="translate(-1283.889 -239.656)" fill="#020215"/></g></g><g transform="translate(5.985 127.667)"><path d="M1290.356,221.129l13.005,34.859c19.637-10.766,47.183-18.157,79.578-18.157,23.244,0,65.857,10.633,79.58,18.157l13.006-34.859c-25.229-12.66-57.269-20.162-92.586-20.162S1315.585,208.468,1290.356,221.129Z" transform="translate(-1290.356 -200.967)" fill="#090745"/></g><g transform="translate(62.639 137.811)"><path d="M1597.186,374.385a32.387,32.387,0,0,1,5.175-.935c2.462-.266,4-.19,5.377.437a3.907,3.907,0,0,1,2.523,3.262,4.056,4.056,0,0,1-2.527,4.131l.007.053a4.489,4.489,0,0,1,4.023,4.011,4.78,4.78,0,0,1-1.444,3.987c-1.185,1.173-3.293,1.989-6.842,2.373a31.106,31.106,0,0,1-4.4.208Zm4.735,6.4,1.324-.144c2.119-.228,3.163-1.225,3.02-2.55-.146-1.349-1.256-1.952-3.084-1.755a11.057,11.057,0,0,0-1.71.293Zm.858,7.916a12.624,12.624,0,0,0,1.567-.116c1.827-.2,3.368-1.061,3.164-2.942-.195-1.8-1.888-2.34-3.9-2.121l-1.377.149Z" transform="translate(-1597.186 -371.717)" fill="#fff"/><path d="M1614.657,385.914l-1.081,4.659-4.205.18,4.717-18.175,5.324-.226,6.329,17.7-4.365.186-1.581-4.546Zm4.422-3.229-1.281-3.758c-.365-1.052-.74-2.369-1.053-3.422l-.053,0c-.221,1.076-.429,2.445-.678,3.5l-.9,3.851Z" transform="translate(-1593.146 -372.034)" fill="#fff"/><path d="M1623.633,385.939a10.356,10.356,0,0,0,4.454,1.289c1.864.072,2.878-.663,2.925-1.834.041-1.119-.786-1.79-2.912-2.643-2.942-1.153-4.822-2.878-4.722-5.486.116-3.06,2.76-5.305,6.994-5.144a11.03,11.03,0,0,1,4.543,1.08l-1.03,3.24a8.537,8.537,0,0,0-3.72-1c-1.758-.067-2.64.7-2.675,1.631-.044,1.144.948,1.689,3.23,2.655,3.123,1.293,4.55,3,4.454,5.527-.114,3.008-2.529,5.476-7.453,5.288a11.737,11.737,0,0,1-5.041-1.286Z" transform="translate(-1588.732 -372.113)" fill="#fff"/><path d="M1639.635,373.231l-1.862,17.858-4.054-.423,1.862-17.857Z" transform="translate(-1585.071 -371.882)" fill="#fff"/><path d="M1652.273,392.456a11.58,11.58,0,0,1-4.671.075c-6.136-.928-8.718-5.224-7.953-10.28.917-6.056,5.746-8.774,11.117-7.962a10.571,10.571,0,0,1,4.251,1.451l-1.3,3.063a8.759,8.759,0,0,0-3.272-1.168c-3.186-.482-5.952,1.065-6.549,5.015-.539,3.555,1.229,6.112,4.812,6.654a10.146,10.146,0,0,0,3.431-.073Z" transform="translate(-1583.148 -371.438)" fill="#fff"/></g></g></svg>