<svg xmlns="http://www.w3.org/2000/svg" xmlns:xlink="http://www.w3.org/1999/xlink" width="126.994" height="139.647" viewBox="0 0 126.994 139.647"><defs><linearGradient id="a" x1="0.5" x2="0.5" y2="1" gradientUnits="objectBoundingBox"><stop offset="0" stop-color="#cdea33"/><stop offset="1" stop-color="#8fc72a"/></linearGradient><filter id="b" x="0" y="0" width="126.994" height="139.647" filterUnits="userSpaceOnUse"><feOffset dx="3" dy="3" input="SourceAlpha"/><feGaussianBlur stdDeviation="3" result="c"/><feFlood flood-opacity="0.239"/><feComposite operator="in" in2="c"/><feComposite in="SourceGraphic"/></filter></defs><g transform="translate(-1422.978 -3543.15)"><g transform="translate(1428.979 3549.15)"><g transform="matrix(1, 0, 0, 1, -6, -6)" filter="url(#b)"><path d="M0,37.212V84.435A13.6,13.6,0,0,0,6.8,96.214l40.9,23.611a13.6,13.6,0,0,0,13.6,0l40.9-23.611a13.6,13.6,0,0,0,6.8-11.779V37.212a13.6,13.6,0,0,0-6.8-11.779L61.3,1.822a13.6,13.6,0,0,0-13.6,0L6.8,25.433A13.6,13.6,0,0,0,0,37.212Z" transform="translate(114.99 127.65) rotate(180)" fill="url(#a)"/></g><path d="M1850.63,568.108a8.323,8.323,0,0,1-4.156-1.114l-40.9-23.611a8.336,8.336,0,0,1-4.157-7.2V488.961a8.337,8.337,0,0,1,4.157-7.2l40.9-23.611a8.314,8.314,0,0,1,8.314,0l40.9,23.611a8.337,8.337,0,0,1,4.157,7.2v47.222a8.338,8.338,0,0,1-4.157,7.2l-40.9,23.611A8.324,8.324,0,0,1,1850.63,568.108Z" transform="translate(-1796.134 -451.749)" fill="url(#a)"/></g><path d="M21.5.672a17.337,17.337,0,0,0,15.9-9.184l-6.832-3.3A10.125,10.125,0,0,1,21.5-6.384c-6.5,0-11.424-5.208-11.424-12.264S15.008-30.912,21.5-30.912a10.23,10.23,0,0,1,9.072,5.432l6.832-3.36c-2.632-4.648-7.392-9.128-15.9-9.128-10.92,0-19.6,7.84-19.6,19.32S10.584.672,21.5.672Z" transform="translate(1464.289 3627.37)" fill="#fff"/></g></svg>