<svg xmlns="http://www.w3.org/2000/svg" xmlns:xlink="http://www.w3.org/1999/xlink" width="197.144" height="218.758" viewBox="0 0 197.144 218.758">
  <defs>
    <linearGradient id="linear-gradient" x1="0.5" x2="0.5" y2="0.587" gradientUnits="objectBoundingBox">
      <stop offset="0" stop-color="#d6cafc"/>
      <stop offset="1" stop-color="#6940f2"/>
    </linearGradient>
    <filter id="Path_3399" x="11.014" y="0" width="181.116" height="218.758" filterUnits="userSpaceOnUse">
      <feOffset dx="3" dy="3" input="SourceAlpha"/>
      <feGaussianBlur stdDeviation="3" result="blur"/>
      <feFlood flood-opacity="0.235"/>
      <feComposite operator="in" in2="blur"/>
      <feComposite in="SourceGraphic"/>
    </filter>
  </defs>
  <g id="Group_3404" data-name="Group 3404" transform="translate(-959.999 -3278.953)">
    <g transform="matrix(1, 0, 0, 1, 960, 3278.95)" filter="url(#Path_3399)">
      <path id="Path_3399-2" data-name="Path 3399" d="M-161.854-154.11c.8.018.413.012,1.178.016l.755.141,3.235.809,8.528,2.132c11.763,2.943,11.763,2.943,25.879,6.472l25.879,6.47,8.529,2.132,3.235.811a6.269,6.269,0,0,1,4.752,6.085v94.12C-79.884-22.4-84.5-10.562-92.93.5c-6.919,9.082-16.221,17.418-27.317,25.046a199.581,199.581,0,0,1-26.722,15.341c-3.184,1.526-6.145,2.851-8.81,3.97-.942.394-1.781.736-2.508,1.023-.449.178-.77.3-.951.37a6.271,6.271,0,0,1-4.407,0c-.181-.067-.5-.192-.952-.37-.727-.288-1.566-.629-2.508-1.023-2.665-1.119-5.626-2.444-8.81-3.97a199.579,199.579,0,0,1-26.722-15.341c-11.1-7.628-20.4-15.964-27.317-25.046C-238.38-10.562-243-22.4-243-34.922v-94.12a6.269,6.269,0,0,1,4.752-6.085l3.235-.811,8.529-2.132,25.879-6.47c14.116-3.529,14.116-3.529,25.879-6.472l8.528-2.132,3.235-.809a6.125,6.125,0,0,1,1.109-.157Zm7.172,14.4" transform="translate(260.01 160.11)" fill="url(#linear-gradient)"/>
    </g>
    <g id="Group_3352" data-name="Group 3352" transform="translate(959.999 3452.279)">
      <g id="Group_3350" data-name="Group 3350" transform="translate(168.522 0)">
        <path id="Path_3395" data-name="Path 3395" d="M1443.808,257.519l5.208-18.482a96.955,96.955,0,0,1,23.414,9.935l-9.685,5.343,1.548,12.25a75.6,75.6,0,0,0-20.484-9.043Z" transform="translate(-1443.808 -239.037)" fill="#6940f2"/>
        <path id="Path_3396" data-name="Path 3396" d="M1453.493,252.946l-9.685,4.192V245.277Z" transform="translate(-1443.808 -238.656)" fill="#020215"/>
      </g>
      <g id="Group_3351" data-name="Group 3351" transform="translate(0 0)">
        <path id="Path_3397" data-name="Path 3397" d="M1313.6,258.519l-5.207-18.482a96.956,96.956,0,0,0-23.415,9.936l9.686,5.343-1.548,12.248a75.6,75.6,0,0,1,20.484-9.042Z" transform="translate(-1284.978 -240.037)" fill="#6940f2"/>
        <path id="Path_3398" data-name="Path 3398" d="M1302.826,253.946l9.685,4.192V246.277Z" transform="translate(-1283.889 -239.656)" fill="#020215"/>
      </g>
    </g>
    <g id="Group_3353" data-name="Group 3353" transform="translate(965.985 3412.62)">
      <path id="Path_3394" data-name="Path 3394" d="M1290.356,221.129l13.005,34.859c19.637-10.766,47.183-18.157,79.578-18.157,23.244,0,65.857,10.633,79.58,18.157l13.006-34.859c-25.229-12.66-57.269-20.162-92.586-20.162S1315.585,208.468,1290.356,221.129Z" transform="translate(-1290.356 -200.967)" fill="#090745"/>
    </g>
    <g id="Group_3363" data-name="Group 3363" transform="translate(1014.705 3422.764)">
      <path id="Path_3423" data-name="Path 3423" d="M1601.315,492.924l-6.2.948.611,4,6.93-1.059.478,3.127-10.758,1.645-2.576-16.862,10.406-1.59.478,3.126-6.58,1.006.535,3.5,6.2-.948Z" transform="translate(-1589.797 -481.031)" fill="#fff"/>
      <path id="Path_3424" data-name="Path 3424" d="M1611.678,499.2l-1.812-2.936c-.737-1.127-1.218-1.972-1.785-2.912l-.051,0c-.264,1.015-.614,1.936-1.036,3.165l-1.136,3.2-4.383.392,4.143-9.029-5.488-7.965,4.407-.4,1.765,2.967c.6.987,1.049,1.785,1.538,2.706l.051,0c.3-1.121.564-1.905.9-2.926l1.159-3.228,4.382-.392-4.043,8.716,5.818,8.24Z" transform="translate(-1587.058 -481.374)" fill="#fff"/>
      <path id="Path_3425" data-name="Path 3425" d="M1613.834,482.016a31.579,31.579,0,0,1,5.2-.5c2.377-.067,4.085.34,5.249,1.218a4.983,4.983,0,0,1,1.932,3.894,5.45,5.45,0,0,1-1.454,4.09,7.9,7.9,0,0,1-5.486,1.952,9.789,9.789,0,0,1-1.318-.039l.173,6.094-3.819.109Zm4.037,7.63a5.839,5.839,0,0,0,1.293.065c2.048-.057,3.284-1.13,3.235-2.874-.046-1.569-1.159-2.472-3.081-2.419a6.5,6.5,0,0,0-1.589.2Z" transform="translate(-1583.425 -481.462)" fill="#fff"/>
      <path id="Path_3426" data-name="Path 3426" d="M1636.091,491.882l-6.262-.364-.236,4.039,6.994.407-.182,3.156-10.857-.631.988-17.018,10.5.61-.183,3.156-6.641-.385-.206,3.533,6.262.364Z" transform="translate(-1580.32 -481.472)" fill="#fff"/>
      <path id="Path_3427" data-name="Path 3427" d="M1638.185,482.458a33.979,33.979,0,0,1,5.136.331c2.509.335,4.213.948,5.289,2.061a4.335,4.335,0,0,1,1.082,3.745,4.527,4.527,0,0,1-3.542,3.762l-.01.075c1.114.635,1.614,1.851,1.833,3.463.272,1.976.5,4.252.741,4.949l-3.913-.525a21.388,21.388,0,0,1-.65-4.094c-.17-2.167-.82-2.841-2.369-3.074l-1.156-.154-.89,6.644-3.785-.506Zm2.811,7.779,1.506.2c1.905.255,3.162-.547,3.359-2.027.208-1.554-.74-2.473-2.492-2.733a9.447,9.447,0,0,0-1.746-.106Z" transform="translate(-1577.562 -481.212)" fill="#fff"/>
      <path id="Path_3428" data-name="Path 3428" d="M1653,487.844l-4.5-.827.586-3.185,12.889,2.37-.585,3.185-4.58-.842-2.5,13.586-3.806-.7Z" transform="translate(-1574.237 -480.847)" fill="#fff"/>
    </g>
    <g id="Group_3398" data-name="Group 3398" transform="translate(1009.605 3317.412)">
      <path id="Path_3429" data-name="Path 3429" d="M914.315,91.13c-.383-1.214-1.615-3.334-5.562-3.878l-26.144-3.614L870.942,61.157c-1.276-2.459-3.244-3.87-5.4-3.87s-4.127,1.411-5.4,3.868L848.467,83.639l-26.142,3.614c-3.947.544-5.179,2.664-5.561,3.878-.639,2.035.175,4.3,2.238,6.209L837.839,114.8l-4.445,24.623a6.375,6.375,0,0,0,1.111,5.459c1.643,1.961,4.573,2.315,7.62.79l23.414-11.706,23.414,11.706a8.288,8.288,0,0,0,3.683.967,5.022,5.022,0,0,0,3.937-1.761,6.357,6.357,0,0,0,1.109-5.456L893.239,114.8l18.837-17.462C914.14,95.427,914.957,93.164,914.315,91.13Z" transform="translate(-816.551 -57.287)" fill="#fff"/>
    </g>
  </g>
</svg>
