<svg xmlns="http://www.w3.org/2000/svg" width="10.408" height="15" viewBox="0 0 10.408 15">
  <g id="pagination-first" transform="translate(-625.795 -1415)">
    <path id="Path_2064" data-name="Path 2064" d="M2544.872,2135.18l-4.033,6.812a.7.7,0,0,0,0,.7l4.033,6.812a.688.688,0,1,0,1.185-.7l-3.826-6.461,3.826-6.461a.688.688,0,0,0-1.185-.7Z" transform="translate(-1909.949 -719.842)" fill="#090745"/>
    <path id="Path_2065" data-name="Path 2065" d="M2544.872,2135.18l-4.033,6.812a.7.7,0,0,0,0,.7l4.033,6.812a.688.688,0,1,0,1.185-.7l-3.826-6.461,3.826-6.461a.688.688,0,0,0-1.185-.7Z" transform="translate(-1914.949 -719.842)" fill="#090745"/>
  </g>
</svg>
